<svg width="162" height="65" viewBox="0 0 162 65" fill="none" xmlns="http://www.w3.org/2000/svg">
<path d="M60.1871 47.1942C57.6187 52.1214 53.5927 56.1362 48.6583 58.6909C43.7239 61.2455 38.1215 62.2155 32.6155 61.4686C27.1095 60.7217 21.968 58.2943 17.8924 54.5175C13.8169 50.7407 11.0059 45.7984 9.84286 40.365C8.67984 34.9317 9.22147 29.2718 11.3939 24.1576C13.5662 19.0434 17.2636 14.724 21.9814 11.7887C26.6993 8.85333 32.2078 7.44505 37.7556 7.75596C43.3033 8.06687 48.6201 10.0818 52.9804 13.5259L36.3452 34.5865C36.319 34.5659 36.2872 34.5538 36.2539 34.5519C36.2206 34.5501 36.1875 34.5585 36.1592 34.5761C36.1309 34.5937 36.1087 34.6196 36.0957 34.6503C36.0827 34.681 36.0794 34.715 36.0864 34.7476C36.0934 34.7802 36.1102 34.8098 36.1347 34.8325C36.1591 34.8551 36.19 34.8697 36.223 34.8742C36.2561 34.8787 36.2897 34.8729 36.3193 34.8575C36.3489 34.8422 36.373 34.8181 36.3885 34.7885L60.1871 47.1942Z" fill="#F5D90A"/>
<path d="M19.0367 49.8063L10.7795 43.1198L12.1168 41.4683L18.7226 46.8175L21.3972 43.5147L23.0486 44.852L19.0367 49.8063ZM27.0605 39.8977L25.4091 38.5604L24.0718 40.2118L19.1175 36.1999L20.4548 34.5485L18.8034 33.2111L21.478 29.9083L23.1294 31.2456L24.4667 29.5941L29.421 33.6061L28.0837 35.2575L29.7352 36.5948L27.0605 39.8977ZM25.343 38.5069L28.0177 35.204L23.1955 31.2991L20.5209 34.6019L25.343 38.5069ZM28.4786 24.6398L26.8272 23.3025L30.8391 18.3482L32.4906 19.6855L28.4786 24.6398ZM32.0956 30.3032L27.1413 26.2913L28.4786 24.6398L33.4329 28.6518L32.0956 30.3032ZM36.1076 25.3489L34.4561 24.0116L33.1188 25.663L31.4674 24.3257L34.142 21.0228L37.4449 23.6975L36.1076 25.3489ZM35.0844 29.9891L33.4329 28.6518L36.1076 25.3489L37.759 26.6862L35.0844 29.9891ZM43.1082 20.0805L41.4568 18.7431L40.1195 20.3946L35.1652 16.3827L36.5025 14.7312L34.851 13.3939L37.5256 10.0911L39.1771 11.4284L40.5144 9.77692L45.4687 13.7888L44.1314 15.4403L45.7828 16.7776L43.1082 20.0805ZM41.3907 18.6897L44.0653 15.3868L39.2431 11.4818L36.5685 14.7847L41.3907 18.6897Z" fill="black"/>
<path d="M63 26.0012C63 23.2398 65.2386 21.0012 68 21.0012H79C81.7614 21.0012 84 23.2398 84 26.0012V41.9212C84 44.6826 81.7614 46.9212 79 46.9212H68C65.2386 46.9212 63 44.6826 63 41.9212V26.0012Z" fill="#E5484D"/>
<path d="M74.9447 42C73.6807 42 72.6887 41.648 71.9687 40.944C71.2647 40.24 70.9127 39.272 70.9127 38.04V31.512H67.3367V28.8H70.9127V25.08H73.9367V28.8H79.0007V31.512H73.9367V38.04C73.9367 38.872 74.3447 39.288 75.1607 39.288H78.7607V42H74.9447Z" fill="white"/>
<path d="M89 32.0806C89 29.3191 91.2386 27.0806 94 27.0806H105C107.761 27.0806 110 29.3191 110 32.0806V48.0006C110 50.762 107.761 53.0006 105 53.0006H94C91.2386 53.0006 89 50.762 89 48.0006V32.0806Z" fill="#D6409F"/>
<path d="M96.984 47.32L98.832 42.28L93.912 29.8H97.2L99.648 36.544C99.776 36.912 99.904 37.36 100.032 37.888C100.16 38.4 100.256 38.824 100.32 39.16C100.4 38.824 100.504 38.4 100.632 37.888C100.76 37.36 100.888 36.912 101.016 36.544L103.32 29.8H106.488L100.128 47.32H96.984Z" fill="white"/>
<path d="M115 24.0811C115 21.3196 117.239 19.0811 120 19.0811H131C133.761 19.0811 136 21.3196 136 24.0811V40.0011C136 42.7625 133.761 45.0011 131 45.0011H120C117.239 45.0011 115 42.7625 115 40.0011V24.0811Z" fill="#00C2D7"/>
<path d="M120.848 43.32V25.8H123.776V28.32H124.448L123.776 29.016C123.776 27.944 124.096 27.104 124.736 26.496C125.376 25.872 126.24 25.56 127.328 25.56C128.656 25.56 129.72 26.016 130.52 26.928C131.32 27.84 131.72 29.064 131.72 30.6V34.176C131.72 35.2 131.536 36.096 131.168 36.864C130.816 37.616 130.312 38.2 129.656 38.616C129 39.032 128.224 39.24 127.328 39.24C126.24 39.24 125.376 38.936 124.736 38.328C124.096 37.704 123.776 36.856 123.776 35.784L124.448 36.48H123.752L123.848 39.624V43.32H120.848ZM126.272 36.648C127.04 36.648 127.64 36.424 128.072 35.976C128.504 35.528 128.72 34.888 128.72 34.056V30.744C128.72 29.912 128.504 29.272 128.072 28.824C127.64 28.376 127.04 28.152 126.272 28.152C125.52 28.152 124.928 28.384 124.496 28.848C124.064 29.296 123.848 29.928 123.848 30.744V34.056C123.848 34.872 124.064 35.512 124.496 35.976C124.928 36.424 125.52 36.648 126.272 36.648Z" fill="white"/>
<path d="M141 30.0811C141 27.3196 143.239 25.0811 146 25.0811H157C159.761 25.0811 162 27.3196 162 30.0811V46.0011C162 48.7625 159.761 51.0011 157 51.0011H146C143.239 51.0011 141 48.7625 141 46.0011V30.0811Z" fill="#849DFF"/>
<path d="M151.224 42.24C150.104 42.24 149.128 42.024 148.296 41.592C147.464 41.16 146.816 40.56 146.352 39.792C145.904 39.008 145.68 38.096 145.68 37.056V33.744C145.68 32.704 145.904 31.8 146.352 31.032C146.816 30.248 147.464 29.64 148.296 29.208C149.128 28.776 150.104 28.56 151.224 28.56C152.328 28.56 153.288 28.776 154.104 29.208C154.936 29.64 155.576 30.248 156.024 31.032C156.488 31.8 156.72 32.704 156.72 33.744V36.12H148.584V37.056C148.584 37.984 148.808 38.688 149.256 39.168C149.704 39.632 150.368 39.864 151.248 39.864C151.92 39.864 152.464 39.752 152.88 39.528C153.296 39.288 153.56 38.944 153.672 38.496H156.624C156.4 39.632 155.792 40.544 154.8 41.232C153.824 41.904 152.632 42.24 151.224 42.24ZM153.816 34.44V33.72C153.816 32.808 153.6 32.112 153.168 31.632C152.736 31.136 152.088 30.888 151.224 30.888C150.36 30.888 149.704 31.136 149.256 31.632C148.808 32.128 148.584 32.832 148.584 33.744V34.248L154.032 34.2L153.816 34.44Z" fill="white"/>
</svg>
